<svg xmlns="http://www.w3.org/2000/svg" viewBox="0 0 1600 400" preserveAspectRatio="xMidYMax slice">
  <g fill="#000000">
    <rect x="0" y="260" width="60" height="140"/>
    <rect x="65" y="200" width="40" height="200"/>
    <rect x="110" y="240" width="70" height="160"/>
    <rect x="185" y="150" width="46" height="250"/>
    <rect x="200" y="120" width="16" height="40"/>
    <rect x="236" y="220" width="60" height="180"/>
    <rect x="300" y="180" width="34" height="220"/>
    <rect x="338" y="260" width="80" height="140"/>
    <rect x="422" y="100" width="54" height="300"/>
    <rect x="440" y="70" width="18" height="40"/>
    <rect x="480" y="230" width="46" height="170"/>
    <rect x="530" y="190" width="60" height="210"/>
    <rect x="595" y="250" width="34" height="150"/>
    <rect x="633" y="60" width="60" height="340"/>
    <rect x="655" y="20" width="16" height="50"/>
    <rect x="698" y="210" width="50" height="190"/>
    <rect x="752" y="170" width="40" height="230"/>
    <rect x="796" y="240" width="70" height="160"/>
    <rect x="870" y="90" width="56" height="310"/>
    <rect x="892" y="50" width="14" height="45"/>
    <rect x="930" y="220" width="44" height="180"/>
    <rect x="978" y="150" width="36" height="250"/>
    <rect x="1018" y="260" width="80" height="140"/>
    <rect x="1102" y="40" width="60" height="360"/>
    <rect x="1124" y="10" width="18" height="40"/>
    <rect x="1166" y="230" width="46" height="170"/>
    <rect x="1216" y="190" width="60" height="210"/>
    <rect x="1280" y="250" width="34" height="150"/>
    <rect x="1318" y="150" width="54" height="250"/>
    <rect x="1336" y="120" width="16" height="40"/>
    <rect x="1376" y="220" width="60" height="180"/>
    <rect x="1440" y="180" width="34" height="220"/>
    <rect x="1478" y="260" width="80" height="140"/>
    <rect x="1560" y="200" width="40" height="200"/>
  </g>
  <g fill="none" stroke="#c9a24b" stroke-opacity="0.35" stroke-width="1">
    <line x1="200" y1="120" x2="200" y2="150"/>
    <line x1="440" y1="70" x2="440" y2="100"/>
    <line x1="655" y1="20" x2="655" y2="60"/>
    <line x1="892" y1="50" x2="892" y2="90"/>
    <line x1="1124" y1="10" x2="1124" y2="40"/>
  </g>
</svg>
